<svg aria-hidden="true" style="position: absolute; width: 0; height: 0; overflow: hidden;" version="1.1" xmlns="http://www.w3.org/2000/svg" xmlns:xlink="http://www.w3.org/1999/xlink">
<defs>
<symbol id="icon-google" viewBox="0 0 32 32">
<path d="M25.167 14.137h-8.97c0 0.933 0 2.798-0.006 3.731h5.198c-0.199 0.933-0.905 2.239-1.903 2.896-0.001-0.001-0.002 0.006-0.004 0.005-1.327 0.876-3.077 1.075-4.377 0.813-2.037-0.405-3.65-1.882-4.305-3.759 0.004-0.003 0.007-0.029 0.010-0.031-0.41-1.164-0.41-2.723 0-3.656h-0.001c0.528-1.715 2.189-3.279 4.229-3.707 1.641-0.348 3.493 0.029 4.855 1.303 0.181-0.177 2.506-2.448 2.681-2.632-4.653-4.213-12.102-2.731-14.89 2.71h-0.001s0.001 0-0.005 0.010c-1.379 2.673-1.322 5.822 0.010 8.366-0.004 0.003-0.007 0.005-0.010 0.007 1.207 2.341 3.402 4.137 6.048 4.821 2.81 0.737 6.387 0.233 8.783-1.934l0.003 0.003c2.030-1.828 3.294-4.943 2.655-8.947z"></path>
</symbol>
<symbol id="icon-linkedin" viewBox="0 0 32 32">
<path d="M26.667 25.333h-4.103v-7.471c0-2.049-0.869-3.193-2.427-3.193-1.695 0-2.702 1.191-2.702 3.193v7.471h-4.103v-13.877h4.103v1.561s1.287-2.351 4.188-2.351c2.901 0 5.043 1.842 5.043 5.655v9.011zM7.334 8c-1.105 0-2-0.896-2-2s0.895-2 2-2c1.104 0 2 0.896 2 2s-0.895 2-2 2zM5.333 25.333h4v-13.333h-4v13.333z"></path>
</symbol>
<symbol id="icon-facebook" viewBox="0 0 32 32">
<path d="M17.943 25.333v-9h2.915l0.476-4h-3.391v-1.948c0-1.030 0.028-2.052 1.563-2.052h1.555v-2.86c0-0.043-1.336-0.14-2.687-0.14-2.822 0-4.589 1.657-4.589 4.7v2.3h-3.118v4h3.118v9h4.158z"></path>
</symbol>
<symbol id="icon-fixed-button" viewBox="0 0 57 32">
<path d="M54.243 24.186c1.498 1.498 1.498 3.928 0 5.426s-3.928 1.498-5.426 0l-20.979-20.979-21.288 21.288c-1.498 1.498-3.928 1.498-5.426 0s-1.498-3.928 0-5.426l23.062-23.062c0.764-0.764 1.769-1.138 2.77-1.123 1.4-0.6 3.083-0.328 4.225 0.814l23.062 23.062z"></path>
</symbol>
<symbol id="icon-slider-list" viewBox="0 0 330 32">
<path d="M160 16c0 8.837-7.163 16-16 16s-16-7.163-16-16c0-8.837 7.163-16 16-16s16 7.163 16 16z"></path>
<path d="M90.947 16c0 8.837-7.163 16-16 16s-16-7.163-16-16c0-8.837 7.163-16 16-16s16 7.163 16 16z"></path>
<path d="M32 16c0 8.837-7.163 16-16 16s-16-7.163-16-16c0-8.837 7.163-16 16-16s16 7.163 16 16z"></path>
<path d="M330.105 16c0 8.837-7.163 16-16 16s-16-7.163-16-16c0-8.837 7.163-16 16-16s16 7.163 16 16z"></path>
<path fill="#dd2242" d="M201.263 0h52.211c8.837 0 16 7.163 16 16s-7.163 16-16 16h-52.211c-8.837 0-16-7.163-16-16s7.163-16 16-16z"></path>
</symbol>
<symbol id="icon-slider-right" viewBox="0 0 20 32">
<path d="M11.472 16.186l-9.999 9.999c-1.302 1.302-1.302 3.412 0 4.714s3.412 1.302 4.714 0l12.406-12.406c1.302-1.302 1.302-3.412 0-4.714-0.16-0.16-0.336-0.304-0.525-0.429l-0.012-0.008-12.365-12.365c-1.302-1.302-3.412-1.302-4.714 0s-1.302 3.412 0 4.714l10.495 10.495z"></path>
</symbol>
<symbol id="icon-slider-left" viewBox="0 0 20 32">
<path d="M8.098 16.186l9.999 9.999c1.302 1.302 1.302 3.412 0 4.714s-3.412 1.302-4.714 0l-12.406-12.406c-1.302-1.302-1.302-3.412 0-4.714 0.16-0.16 0.336-0.304 0.525-0.429l0.012-0.008 12.365-12.365c1.302-1.302 3.412-1.302 4.714 0s1.302 3.412 0 4.714l-10.495 10.495z"></path>
</symbol>
<symbol id="icon-burger-menu" viewBox="0 0 36 32">
<path d="M6.554 24h24.013v-2.667h-24.013v2.667zM6.554 17.333h24.013v-2.667h-24.013v2.667zM6.554 8v2.667h24.013v-2.667h-24.013z"></path>
</symbol>
<symbol id="icon-search" viewBox="0 0 33 32">
<path d="M20.381 18h-0.79l-0.28-0.27c0.98-1.14 1.57-2.62 1.57-4.23 0-3.59-2.91-6.5-6.5-6.5s-6.5 2.91-6.5 6.5 2.91 6.5 6.5 6.5c1.61 0 3.090-0.59 4.23-1.57l0.27 0.28v0.79l5 4.99 1.49-1.49-4.99-5zM14.38 18c-2.49 0-4.5-2.010-4.5-4.5s2.010-4.5 4.5-4.5 4.5 2.010 4.5 4.5-2.010 4.5-4.5 4.5z"></path>
</symbol>
</defs>
</svg>
